<svg id="visual" viewBox="0 0 900 600" width="900" height="600" xmlns="http://www.w3.org/2000/svg" xmlns:xlink="http://www.w3.org/1999/xlink" version="1.1"><rect x="0" y="0" width="900" height="600" fill="#f0f5f0"></rect><defs><linearGradient id="grad1_0" x1="33.3%" y1="0%" x2="100%" y2="100%"><stop offset="20%" stop-color="#e1d9cd" stop-opacity="1"></stop><stop offset="80%" stop-color="#e1d9cd" stop-opacity="1"></stop></linearGradient></defs><defs><linearGradient id="grad1_1" x1="33.3%" y1="0%" x2="100%" y2="100%"><stop offset="20%" stop-color="#e1d9cd" stop-opacity="1"></stop><stop offset="80%" stop-color="#e3dfd3" stop-opacity="1"></stop></linearGradient></defs><defs><linearGradient id="grad1_2" x1="33.3%" y1="0%" x2="100%" y2="100%"><stop offset="20%" stop-color="#e5e5da" stop-opacity="1"></stop><stop offset="80%" stop-color="#e3dfd3" stop-opacity="1"></stop></linearGradient></defs><defs><linearGradient id="grad1_3" x1="33.3%" y1="0%" x2="100%" y2="100%"><stop offset="20%" stop-color="#e5e5da" stop-opacity="1"></stop><stop offset="80%" stop-color="#e8eae2" stop-opacity="1"></stop></linearGradient></defs><defs><linearGradient id="grad1_4" x1="33.3%" y1="0%" x2="100%" y2="100%"><stop offset="20%" stop-color="#ecf0e9" stop-opacity="1"></stop><stop offset="80%" stop-color="#e8eae2" stop-opacity="1"></stop></linearGradient></defs><defs><linearGradient id="grad1_5" x1="33.3%" y1="0%" x2="100%" y2="100%"><stop offset="20%" stop-color="#ecf0e9" stop-opacity="1"></stop><stop offset="80%" stop-color="#f0f5f0" stop-opacity="1"></stop></linearGradient></defs><defs><linearGradient id="grad2_0" x1="0%" y1="0%" x2="66.7%" y2="100%"><stop offset="20%" stop-color="#e1d9cd" stop-opacity="1"></stop><stop offset="80%" stop-color="#e1d9cd" stop-opacity="1"></stop></linearGradient></defs><defs><linearGradient id="grad2_1" x1="0%" y1="0%" x2="66.7%" y2="100%"><stop offset="20%" stop-color="#e3dfd3" stop-opacity="1"></stop><stop offset="80%" stop-color="#e1d9cd" stop-opacity="1"></stop></linearGradient></defs><defs><linearGradient id="grad2_2" x1="0%" y1="0%" x2="66.7%" y2="100%"><stop offset="20%" stop-color="#e3dfd3" stop-opacity="1"></stop><stop offset="80%" stop-color="#e5e5da" stop-opacity="1"></stop></linearGradient></defs><defs><linearGradient id="grad2_3" x1="0%" y1="0%" x2="66.7%" y2="100%"><stop offset="20%" stop-color="#e8eae2" stop-opacity="1"></stop><stop offset="80%" stop-color="#e5e5da" stop-opacity="1"></stop></linearGradient></defs><defs><linearGradient id="grad2_4" x1="0%" y1="0%" x2="66.7%" y2="100%"><stop offset="20%" stop-color="#e8eae2" stop-opacity="1"></stop><stop offset="80%" stop-color="#ecf0e9" stop-opacity="1"></stop></linearGradient></defs><defs><linearGradient id="grad2_5" x1="0%" y1="0%" x2="66.7%" y2="100%"><stop offset="20%" stop-color="#f0f5f0" stop-opacity="1"></stop><stop offset="80%" stop-color="#ecf0e9" stop-opacity="1"></stop></linearGradient></defs><g transform="translate(900, 0)"><path d="M0 486.7C-71.1 487.5 -142.3 488.2 -186.3 449.7C-230.3 411.2 -247.2 333.3 -284.3 284.3C-321.3 235.2 -378.6 214.8 -415.7 172.2C-452.9 129.6 -469.8 64.8 -486.7 0L0 0Z" fill="#eef2ec"></path><path d="M0 405.6C-59.3 406.2 -118.6 406.9 -155.2 374.7C-191.9 342.6 -206 277.8 -236.9 236.9C-267.8 196 -315.5 179 -346.5 143.5C-377.4 108 -391.5 54 -405.6 0L0 0Z" fill="#eaede5"></path><path d="M0 324.5C-47.4 325 -94.8 325.5 -124.2 299.8C-153.5 274.1 -164.8 222.2 -189.5 189.5C-214.2 156.8 -252.4 143.2 -277.2 114.8C-301.9 86.4 -313.2 43.2 -324.5 0L0 0Z" fill="#e6e8de"></path><path d="M0 243.4C-35.6 243.7 -71.1 244.1 -93.1 224.8C-115.1 205.6 -123.6 166.7 -142.1 142.1C-160.7 117.6 -189.3 107.4 -207.9 86.1C-226.4 64.8 -234.9 32.4 -243.4 0L0 0Z" fill="#e4e2d7"></path><path d="M0 162.2C-23.7 162.5 -47.4 162.7 -62.1 149.9C-76.8 137.1 -82.4 111.1 -94.8 94.8C-107.1 78.4 -126.2 71.6 -138.6 57.4C-151 43.2 -156.6 21.6 -162.2 0L0 0Z" fill="#e2dcd0"></path><path d="M0 81.1C-11.9 81.2 -23.7 81.4 -31 74.9C-38.4 68.5 -41.2 55.6 -47.4 47.4C-53.6 39.2 -63.1 35.8 -69.3 28.7C-75.5 21.6 -78.3 10.8 -81.1 0L0 0Z" fill="#e1d9cd"></path></g><g transform="translate(0, 600)"><path d="M0 -486.7C49.2 -447.3 98.4 -407.8 161.9 -390.8C225.3 -373.8 303.1 -379.4 344.2 -344.2C385.3 -309 389.8 -232.9 407.4 -168.8C425.1 -104.6 455.9 -52.3 486.7 0L0 0Z" fill="#eef2ec"></path><path d="M0 -405.6C41 -372.7 82 -339.8 134.9 -325.7C187.8 -311.5 252.6 -316.2 286.8 -286.8C321.1 -257.5 324.8 -194.1 339.5 -140.6C354.2 -87.2 379.9 -43.6 405.6 0L0 0Z" fill="#eaede5"></path><path d="M0 -324.5C32.8 -298.2 65.6 -271.8 107.9 -260.5C150.2 -249.2 202.1 -252.9 229.5 -229.5C256.9 -206 259.8 -155.3 271.6 -112.5C283.4 -69.7 303.9 -34.9 324.5 0L0 0Z" fill="#e6e8de"></path><path d="M0 -243.4C24.6 -223.6 49.2 -203.9 80.9 -195.4C112.7 -186.9 151.5 -189.7 172.1 -172.1C192.6 -154.5 194.9 -116.5 203.7 -84.4C212.5 -52.3 228 -26.1 243.4 0L0 0Z" fill="#e4e2d7"></path><path d="M0 -162.2C16.4 -149.1 32.8 -135.9 54 -130.3C75.1 -124.6 101 -126.5 114.7 -114.7C128.4 -103 129.9 -77.6 135.8 -56.3C141.7 -34.9 152 -17.4 162.2 0L0 0Z" fill="#e2dcd0"></path><path d="M0 -81.1C8.2 -74.5 16.4 -68 27 -65.1C37.6 -62.3 50.5 -63.2 57.4 -57.4C64.2 -51.5 65 -38.8 67.9 -28.1C70.8 -17.4 76 -8.7 81.1 0L0 0Z" fill="#e1d9cd"></path></g></svg>