<?xml version="1.0" encoding="UTF-8"?>
<svg version="1.1" viewBox="0 0 2048 1448" width="588" height="416" xmlns="http://www.w3.org/2000/svg">
<path transform="translate(0)" d="m0 0h2048v1448h-2048z"/>
<path transform="translate(912,112)" d="m0 0h16l25 3 20 6 13 5 23 13 13 11 8 7 11 12 9 12 9 16 7 15 7 25 2 16 1 15v905l-2 26-3 17-7 23-11 23-9 14-13 16-9 10-11 9-13 10-24 13-16 6-21 6-35 4-26-2-23-5-19-7-17-8-18-12-13-11-10-9-9-11-8-10-12-20-10-23-11 1-10 1h-9l-36-4-29-9-27-14-12-9-13-11-7-6-9-11-10-12-10-18-8-16-7-23-3-15-2-19v-23l3-19-6-2-21-11-17-12-14-12-13-13-8-10-10-14-10-18-8-18-5-15-5-23-2-19v-25l2-17 5-22 7-20 11-23 13-19 8-10 14-15 14-12 13-9 8-5h2l-10-25-5-17-4-21-1-11v-18l3-28 6-24 8-21 10-19 7-11 11-14 9-10 14-14 13-10 19-12 18-9h2l-3-15-1-9v-15l4-30 9-27 11-21 10-13 11-13 11-10 16-12 20-11 27-9 21-3 20-2 10-26 12-21 10-13 9-10 13-12 21-14 19-9 20-6 17-3z" fill="#fff"/>
<path transform="translate(1301,112)" d="m0 0h16l18 2 20 5 20 8 11 6 15 10 14 12 9 9 12 16 9 15 7 16 5 15v2h11l26 3 27 8 25 13 13 10 13 11 10 11 10 13 13 24 8 24 3 16 2 19v11l-3 21-1 4 22 11 12 8 14 10 13 12 12 12 13 17 9 15 8 15 8 21 6 25 3 29v15l-2 17-5 24-7 20-5 13 19 13 13 11 10 9 10 11 11 15 10 16 9 19 8 24 5 25 1 14v17l-2 23-6 26-9 24-11 21-12 17-11 13-14 14-17 13-16 10-15 8-5 2 2 20v21l-3 27-7 25-7 17-13 23-9 11-12 14-10 9-17 13-26 14-27 9-14 3-29 3-19-1-10-1-11 25-14 22-11 13-9 10-14 12-15 10-14 8-20 8-13 4-20 4-26 2-28-3-17-4-21-7-25-13-12-9-13-11-7-6-9-11-11-14-10-18-6-12-6-18-4-16-3-31v-914l3-28 8-26 10-20 7-11 9-11 9-10 7-7 17-13 22-12 17-6 14-4z" fill="#fff"/>
</svg>
